<svg width="24" height="44" viewBox="0 0 24 44" fill="none" xmlns="http://www.w3.org/2000/svg">
<path d="M12 18V15V18Z" fill="#4A7DFF"/>
<path d="M12 18V15" stroke="#171717" stroke-width="1.5" stroke-linecap="round" stroke-linejoin="round"/>
<path d="M10.0698 2.81997L3.13978 8.36997C2.35978 8.98997 1.85978 10.3 2.02978 11.28L3.35978 19.24C3.59978 20.66 4.95978 21.81 6.39978 21.81H17.5998C19.0298 21.81 20.3998 20.65 20.6398 19.24L21.9698 11.28C22.1298 10.3 21.6298 8.98997 20.8598 8.36997L13.9298 2.82997C12.8598 1.96997 11.1298 1.96997 10.0698 2.81997Z" stroke="#171717" stroke-width="1.5" stroke-linecap="round" stroke-linejoin="round"/>
<path d="M14.9736 40.1934V42.6738H8.99707V40.1934H14.9736ZM9.75879 40.7891V42.0781H14.2217V40.7891H9.75879ZM15.4814 34.8418V35.4375H8.44043V34.8418H11.6045V33.9824H12.3662V34.8418H15.4814ZM11.9854 35.7891C13.7822 35.7988 14.7979 36.209 14.7979 37.0195C14.7979 37.7812 13.9238 38.1865 12.3662 38.2402V38.9141H15.9404V39.5293H8.03027V38.9141H11.6045V38.2402C10.042 38.1865 9.16309 37.7812 9.16309 37.0195C9.16309 36.209 10.1885 35.7988 11.9854 35.7891ZM11.9854 36.3262C10.7061 36.3359 9.97363 36.5703 9.9834 37.0195C9.97363 37.459 10.7061 37.7129 11.9854 37.7129C13.2549 37.7129 13.9873 37.459 13.9873 37.0195C13.9873 36.5703 13.2549 36.3359 11.9854 36.3262Z" fill="black"/>
</svg>
