<svg width="37" height="43" viewBox="0 0 37 43" fill="none" xmlns="http://www.w3.org/2000/svg">
<circle cx="18.5" cy="11" r="10.25" stroke="black" stroke-width="1.5"/>
<path d="M8.5 11H12.5L14 7.5L17.5 16L20.5 4.5L23 14L24 11H28.5" stroke="black" stroke-width="1.5" stroke-linejoin="round"/>
<path d="M3.15332 33.7441C4.52051 33.7441 5.4873 34.5742 5.4873 35.7852C5.4873 36.9961 4.52051 37.8262 3.15332 37.8262C1.78613 37.8262 0.799805 36.9961 0.80957 35.7852C0.799805 34.5742 1.78613 33.7441 3.15332 33.7441ZM3.15332 34.418C2.22559 34.418 1.55176 34.9746 1.56152 35.7852C1.55176 36.5957 2.22559 37.1523 3.15332 37.1523C4.07129 37.1523 4.73535 36.5957 4.73535 35.7852C4.73535 34.9746 4.07129 34.418 3.15332 34.418ZM7.43066 33.1094V41.8105H6.66895V33.1094H7.43066ZM0.360352 39.2422C1.96191 39.2422 4.16895 39.2324 6.09277 38.9492L6.15137 39.5156C4.16895 39.8867 2.03027 39.8965 0.467773 39.8965L0.360352 39.2422ZM16.9033 40.0723V40.7168H8.9541V40.0723H11.1904V38.4219H9.9502V35.7461H15.1455V34.3887H9.93066V33.7539H15.8975V36.3809H10.7119V37.7871H16.1025V38.4219H14.7451V40.0723H16.9033ZM11.9424 40.0723H13.9932V38.4219H11.9424V40.0723ZM24.6084 34.0176C24.5986 36.5273 23.749 38.8223 20.624 40.3555L20.1943 39.7695C21.8301 38.9785 22.8115 37.9727 23.3389 36.8008L20.3604 37.084L20.2334 36.4102L23.5732 36.1855C23.7246 35.6973 23.8125 35.1846 23.8467 34.6523H20.6729V34.0176H24.6084ZM26.8252 33.1094V36.6445H28.2314V37.2891H26.8252V41.791H26.0635V33.1094H26.8252ZM35.7607 37.2891V37.9238H29.7646V33.9199H35.6729V34.5547H30.5264V37.2891H35.7607ZM36.6982 39.9648V40.6094H28.749V39.9648H36.6982Z" fill="black"/>
</svg>
