<svg width="24" height="44" viewBox="0 0 24 44" fill="none" xmlns="http://www.w3.org/2000/svg">
<path d="M12 12C14.7614 12 17 9.76142 17 7C17 4.23858 14.7614 2 12 2C9.23858 2 7 4.23858 7 7C7 9.76142 9.23858 12 12 12Z" stroke="#171717" stroke-width="1.5" stroke-linecap="round" stroke-linejoin="round"/>
<path d="M20.5901 22C20.5901 18.13 16.7402 15 12.0002 15C7.26015 15 3.41016 18.13 3.41016 22" stroke="#171717" stroke-width="1.5" stroke-linecap="round" stroke-linejoin="round"/>
<path d="M8.07422 34.9883V40.584H4.07031V34.9883H8.07422ZM4.8125 35.6035V39.959H7.3125V35.6035H4.8125ZM10.4277 34.1094V37.5762H11.8828V38.2402H10.4277V42.791H9.66602V34.1094H10.4277ZM19.5098 34.1094V42.8105H18.7383V34.1094H19.5098ZM14.8906 34.7832C16.1797 34.793 17.1074 35.9648 17.1074 37.8105C17.1074 39.6562 16.1797 40.8281 14.8906 40.8281C13.5918 40.8281 12.6738 39.6562 12.6738 37.8105C12.6738 35.9648 13.5918 34.793 14.8906 34.7832ZM14.8906 35.4668C14.0215 35.4766 13.416 36.3945 13.416 37.8105C13.416 39.2266 14.0215 40.1445 14.8906 40.1445C15.7598 40.1445 16.3652 39.2266 16.3652 37.8105C16.3652 36.3945 15.7598 35.4766 14.8906 35.4668Z" fill="black"/>
</svg>
