<svg width="57" height="44" viewBox="0 0 57 44" fill="none" xmlns="http://www.w3.org/2000/svg">
<path d="M30.5 5H36.5" stroke="#171717" stroke-width="1.5" stroke-linecap="round" stroke-linejoin="round"/>
<path d="M30.5 8H33.5" stroke="#171717" stroke-width="1.5" stroke-linecap="round" stroke-linejoin="round"/>
<path d="M37.5 11.5C37.5 16.75 33.25 21 28 21C22.75 21 18.5 16.75 18.5 11.5C18.5 6.25 22.75 2 28 2" stroke="#171717" stroke-width="1.5" stroke-linecap="round" stroke-linejoin="round"/>
<path d="M38.5 22L36.5 20" stroke="#171717" stroke-width="1.5" stroke-linecap="round" stroke-linejoin="round"/>
<path d="M3.25586 34.7441C4.62305 34.7441 5.58984 35.5742 5.58984 36.7852C5.58984 37.9961 4.62305 38.8262 3.25586 38.8262C1.88867 38.8262 0.902344 37.9961 0.912109 36.7852C0.902344 35.5742 1.88867 34.7441 3.25586 34.7441ZM3.25586 35.418C2.32812 35.418 1.6543 35.9746 1.66406 36.7852C1.6543 37.5957 2.32812 38.1523 3.25586 38.1523C4.17383 38.1523 4.83789 37.5957 4.83789 36.7852C4.83789 35.9746 4.17383 35.418 3.25586 35.418ZM7.5332 34.1094V42.8105H6.77148V34.1094H7.5332ZM0.462891 40.2422C2.06445 40.2422 4.27148 40.2324 6.19531 39.9492L6.25391 40.5156C4.27148 40.8867 2.13281 40.8965 0.570312 40.8965L0.462891 40.2422ZM17.0059 41.0723V41.7168H9.05664V41.0723H11.293V39.4219H10.0527V36.7461H15.248V35.3887H10.0332V34.7539H16V37.3809H10.8145V38.7871H16.2051V39.4219H14.8477V41.0723H17.0059ZM12.0449 41.0723H14.0957V39.4219H12.0449V41.0723ZM23.2949 36.4434C23.2852 38.0254 24.3691 39.627 25.6484 40.2031L25.1797 40.8086C24.1934 40.3252 23.3389 39.3047 22.9238 38.0645C22.5186 39.3779 21.6641 40.4717 20.6484 40.9844L20.1602 40.3398C21.4492 39.7441 22.5234 38.0938 22.5332 36.4434V34.8613H23.2949V36.4434ZM27.3672 34.1094V42.8105H26.5957V34.1094H27.3672ZM36.0488 34.1094V38.6016H35.2773V36.3457H33.3438V35.7109H35.2773V34.1094H36.0488ZM36.0488 39.041V41.1113H31.1953V42.0586H36.3711V42.6738H30.4434V40.5254H35.2871V39.6562H30.4238V39.041H36.0488ZM31.8105 35.2129C31.8008 36.3555 32.6992 37.3906 33.9688 37.8105L33.5586 38.4062C32.5967 38.0645 31.8301 37.3809 31.4492 36.502C31.0781 37.4932 30.292 38.25 29.2617 38.6211L28.8418 38.0059C30.1504 37.5762 31.0488 36.4824 31.0586 35.2129V34.3926H31.8105V35.2129ZM44.4863 34.6758C44.4766 36.8535 42.9238 38.416 40.4238 39.1289L40.1016 38.5234C42.1768 37.9375 43.5 36.7852 43.666 35.3105H40.5508V34.6758H44.4863ZM47.2012 34.1191V39.0703H46.4297V37H44.5059V36.3555H46.4297V34.1191H47.2012ZM47.2012 39.4414V42.6738H41.5664V39.4414H47.2012ZM42.3086 40.0566V42.0488H46.4395V40.0566H42.3086ZM51.2344 35.8086C51.2344 36.7949 51.8984 37.791 53.0117 38.2305L52.6016 38.8262C51.7812 38.4844 51.1807 37.8496 50.873 37.0781C50.5508 37.9229 49.9258 38.6602 49.0762 39.041L48.6562 38.4453C49.7988 37.9375 50.502 36.7949 50.502 35.8086V34.6465H51.2344V35.8086ZM56.0195 34.1191V39.3633H55.2871V37.0293H54.1348V39.3145H53.4121V34.2754H54.1348V36.3848H55.2871V34.1191H56.0195ZM56.0195 39.8418V42.791H55.2676V40.4766H50.1699V39.8418H56.0195Z" fill="black"/>
</svg>
